<?xml version="1.0" encoding="utf-8"?>
<!-- Generator: Adobe Illustrator 27.0.0, SVG Export Plug-In . SVG Version: 6.00 Build 0)  -->
<svg version="1.1" id="Layer_1" xmlns="http://www.w3.org/2000/svg" xmlns:xlink="http://www.w3.org/1999/xlink" x="0px" y="0px"
	 viewBox="0 0 66.9 66.9" style="enable-background:new 0 0 66.9 66.9;" xml:space="preserve">
<g>
	<path d="M46.8,45.1c-0.5-0.2-0.9-0.6-1.4-0.9C45,44,44.8,44,44.8,44.5c0,0.2,0.1,0.6,0,0.7c-0.3,0.2-0.4,0.3-0.4,0.7
		s-0.1,0.7-0.2,1.1c0-0.6,0-1.3,0-1.9c-0.1,0-0.2,0-0.3,0c-0.6,1.7-0.4,3.6-1,5.3c-0.4-0.9,0.2-1.9,0.1-3.1
		c-0.5,0.8-0.7,1.6-0.7,2.5c0,0.8-0.1,1.6,0.1,2.4c0.1,0.4,0.2,0.7-0.2,1c-0.2,0.2-0.1,0.6-0.1,0.9c0,1.4,0.1,2.9,0,4.3
		c-0.1,2.6,0,5.1,0.1,7.7c0,0.2,0,0.4,0,0.6c-0.2,0-0.3,0-0.5,0c-0.1-1.3,0-2.6-0.2-3.9c-0.1-0.9,0.1-1.8,0.2-2.7
		c0.1-2.7-0.1-5.5,0.2-8.2c0.1-1.1,0.3-2.2,0.2-3.3c-0.4,0.5-0.7,1-1.2,1.6c0.1-0.6,0.4-1,0.5-1.4c-0.2,0.1-0.4,0.2-0.6,0.4
		c-0.5,0.5-1.3,0.8-1.3,1.6c-0.1,1.7-0.1,3.4-0.1,5.1c0,0.6,0,1.3,0.2,1.8c0.8,1.8,0.4,3.7,0.1,5.5c-0.1,0.5-0.6,0.8-0.6,1.3
		c0,0.8,0,1.5,0,2.3c-0.1,0-0.3,0-0.4,0c-0.1-0.5,0-1-0.3-1.7c-0.2,0.7-0.1,1.2,0,1.7c-0.2,0-0.3,0-0.5,0c-0.1-0.2,0.1-0.5-0.2-0.7
		c-0.2,0.2-0.3,0.5-0.5,0.7c-0.3,0-0.6,0-0.9,0c0.2-0.7,1.1-0.9,1.4-1.6c-1.3,0.6-2.5,1.2-3.8,1.1c-1.4,0-2.7-0.4-3.8-1.2
		c0,0.6,0.1,1.2,0.2,1.7c-0.3,0-0.5,0-0.8,0c0.1-0.1-0.2-0.2,0-0.4c0.3-0.3,0.1-1.5-0.2-1.9c-0.1,0.8,0,1.5-0.2,2.3
		c-0.1,0-0.2,0-0.3,0c0-0.7,0.1-1.4,0.1-2c0.1-0.4-0.1-0.8-0.3-1.1c-1-1.7-1.5-3.6-0.7-5.5c0.6-1.4,0.6-2.8,0.6-4.2
		c0-0.2,0-0.4-0.2-0.5c-0.8-0.4-1.5-0.9-2.3-1.3c-0.2,0.6-0.1,1.2,0,1.7c0.2,0.8,0.1,1.5,0.1,2.3c0,0.4-0.1,0.8-0.1,1.2
		c0,1.2,0,2.4,0.1,3.6c0.2,1.9-0.4,3.9,0,5.8c-0.2,0-0.4,0-0.6,0c-0.1-1.2,0.4-2.4,0.2-3.8c-0.3,0.7-0.3,1.4-0.7,1.9
		c0-0.4,0-0.9,0.1-1.3c0.4-2.1,0.7-4.3,0.6-6.5c-0.1-1.6,0.1-3.2-0.1-4.8c0-0.3-0.1-0.5-0.4-0.7c-2.4-1.5-4.1-3.6-5.1-6.3
		c-1.3-3.5-1.9-7-1.2-10.7c0.2-1.3,0.8-2.5,1.3-3.7c0.1-0.2,0.3-0.4,0.2-0.7c-0.2,0-0.2,0.2-0.3,0.3c-0.4,0.8-0.4,0.8-1,0.1
		c-0.6-0.8-0.9-1.7-1-2.7c-0.4-3.3-0.3-6.6,0.9-9.7c0.2-0.6,0.1-1.1,0.3-1.7c0.3,0.1,0,0.4,0.3,0.4c-0.1,0.4,0,0.8-0.1,1.3
		c-0.7,1.9-0.6,3.8,0,5.7c0.6,2.1,1.5,4.1,2.8,6c0.1,0.1,0.2,0.3,0.2,0.4c0.2,1.5,0.8,2.8,1.5,4.1c1.1,2.1,2,4.3,3.4,6.2
		c0.1,0.2,0.6,0.1,0.5,0.5c0,0.1,0.2,0,0.3-0.1c0.1-0.1,0.1-0.4,0.4-0.4c0.1,0.3-0.2,0.5-0.1,0.7c0.2,0.1,0.2-0.3,0.4-0.2
		c0.1,0.1-0.1,0.3,0.1,0.4c0.1-0.1,0.2-0.2,0.3-0.3c0,0.2,0,0.3,0.1,0.5c0.1-0.2,0.2-0.3,0.3-0.5c-0.1,0.4,0,0.8,0.2,1.1
		c0.2-0.5,0.2-0.8-0.3-1.1c0-0.3,0.1-0.3,0.3-0.1c0.2,0.3,0.4,0.9,0.6,0.9c0.3,0.1,0.4,0.2,0.4,0.4c0,0.1,0,0.1,0.1,0.2
		c0.2-0.2,0.1-0.4,0.2-0.5c0.3-0.1,0.4,0.7,0.7,0.1c0.1,0.2,0,0.5,0.1,0.7c0.2-0.3,0-0.8,0.3-0.8c0.5,0,0.4-0.3,0.4-0.5
		c0.1-0.4,0.1-0.7,0.1-1.1c0.2,0.1,0.3,0.2,0.4,0.2c0.4,0.3,0.7,0.6,1.1,0.9c0.5,0.6,1.2,0.9,1.9,1.4c-0.1-0.5-0.9-0.5-0.8-1.1
		c0.5,0.4,1.1,0.4,1.5,0.6c0.4-0.1-0.2-0.5,0.2-0.5c0.7,0.1,0.8-0.6,1.4-0.7c0.3,0,0-0.3,0.2-0.4c0.2,0,0.3,0.4,0.5,0.2
		c0.7-0.7,1.6-1.3,2-2.2c0.6-1.1,1.1-2.2,1.5-3.4s0.9-2.5,1.2-3.8c0.3-1.4,0.9-2.8,0.8-4.3c-0.2-2.9-0.7-5.8-1.5-8.6
		c-0.4-1.2-0.8-2.4-1.8-3.4c-0.4,0.7,0,1.5-0.5,2.1c0.1-0.7,0-1.4-0.2-2.1c-0.1-0.3-0.3-0.6-0.6-0.6c-0.6-0.1-1.2-0.3-1.8-0.2
		c-1.1,0.3-2.2,0.4-3.2,1c-0.5,0.3-0.7,0.7-0.4,1.3c0.2,0.3,0.2,0.7,0.3,1.1c-0.8-1.6-1.2-3.4-1.2-5.2c-0.2,0.2-0.1,0.5-0.1,0.7
		c0,0.8,0.2,1.6,0.3,2.3c0,0.1,0.1,0.4,0,0.4c-0.7-0.2-0.4,0.4-0.3,0.6c0.1,1.8,0.1,3.5-0.2,5.3c-0.2,1,0.1,1.2,1,0.9
		c0.5-0.1,0.7,0.2,1.1,0.4c0.2,0.1,0.1,0.4-0.1,0.5l0,0c-0.2,0.4-0.5,0.9-1,0.8c-0.6-0.2-1.3,0-1.9-0.1c-0.3,0-0.6-0.3-0.8-0.2
		c-0.7,0.5-1.4,0.2-2,0.1c-0.9-0.1-1.9,0-2.8,0c-0.2,0-0.4,0-0.4,0.2c0,0.3,0.3,0.2,0.4,0.2c0.7-0.1,1.5-0.1,2.2,0.1
		c0.8,0.2,1.4,0.8,1.5,1.5c0,0.1,0.1,0.3-0.1,0.4c-0.8,0.1-1.5,0.3-2.3-0.1c-0.4-0.2-0.7-0.6-0.6-1.1c0.1-0.4-0.1-0.4-0.4-0.4
		c-0.5,0-0.8,0.3-0.6,0.8c0.2,0.8,0.5,1.5,0.9,2.2s0.8,1.3,1.4,1.8c-1.6-1-2.2-2.7-2.9-4.3c-0.3,0.2-0.5,0.4-0.9,0.2
		c0-0.4,0.3-0.6,0.5-0.8c0.3-0.3,0.3-0.9,0-1c-0.8-0.1-1.2-0.8-1.8-1.3c-0.7-0.5-1.1-1.2-0.9-2.2c0.2-0.7,0.2-1.5,0.1-2.3
		c-0.4,2.5-0.8,4.8-0.2,7.2c0,0.1,0.1,0.3-0.1,0.3c-0.2,0.1-0.3,0-0.5-0.1c-0.2-0.2-0.4-0.4-0.5-0.6s-0.2-0.3-0.4-0.5
		c-1-1.3-1.7-2.6-1.8-4.3c0-0.9,0.2-1.8,0.4-2.8c0.4-1.6,1.1-2.9,2.1-4.2c0.8-1,1.8-1.9,2.7-2.7c1.4-1.3,3.1-1.8,5-2.2
		c-0.9,1.1-1.7,2-2.2,3.2c-0.3,0.6-0.5,1.3-0.8,1.9c-0.8,1.6-1.2,3.4-1.2,5.2c0,0.3,0,0.5,0.3,0.8c0.4-2,0.8-3.9,1.5-5.8
		s1.4-3.8,3-5.2c0.4-0.4,0.9-0.7,1.4-1c-0.7,0.2-1.4,0.5-2.2,0.6c-1.9,0.2-3.7,0.9-5.1,2.2c-1.9,1.6-3.5,3.4-4.3,5.7
		c-0.1,0.2-0.1,0.5-0.4,0.1c-0.3-3.3,0.7-6.2,3-8.5c1.1-1.1,2.4-2.2,4-2.8c1-0.4,2.1-0.6,3.1-1.3c0.4-0.3,0.1-0.4-0.1-0.5
		C28,1.9,26.1,1.4,24,1.9c-1,0.9-1.6,1.1-2.2,1.2c1.8-1,3.7-1.4,5.8-0.7C29.2,3,30.7,4,32.1,5.1c0.4,0.3,0.8,0.6,1.2,0.8
		c-1-1-2.2-1.9-3.5-2.7c0.2-0.1,0.3,0,0.4,0.1c0.6,0.3,1,0.2,1.6-0.3c0.3-0.2,0.7-0.3,1.1-0.4c0.9-0.2,1.7-0.4,2.6-0.2
		C35.8,2.5,36,2.2,36.1,2c0.6-0.7,1.2-1.4,2-1.9c-0.6,0.7-1.1,1.3-1.7,2c-0.3,0.3-0.4,0.6,0.1,0.7c0.1,0,0.2,0.1,0.2,0.1
		c1.1,0.8,2.2,1.5,3.3,2.3C41.2,6,42.2,7,43.3,7.9c0.5,0.4,0.8,0.9,1.1,1.4c1.1,1.9,2,3.9,2.8,5.9c0.3,0.9,0.4,1.8,0.8,2.6
		c0.3,0.7,0,1.4-0.2,2.1c-0.2,0.8-0.3,1.6-0.4,2.4c-0.1,0.5-0.1,1-0.5,1.4c-0.2,0.2,0,0.6,0,0.9c0.3,2,0.9,3.9,1.5,5.9
		c0.4,1.5,0.6,3,0.6,4.6c-0.1-0.5-0.1-1-0.2-1.5c-0.2-0.5-0.4-1-0.7-1.5c0.1,0.3,0.1,0.6,0.2,0.9c0.6,1.9,0.8,3.9,0.2,5.9
		c-0.9,2.9-0.1,5.5,1.8,7.8c0.9,1,1.6,2.2,1.9,3.5c0.1,0.3,0,0.7-0.1,1.1c0.1-1.1-0.8-1.5-1.4-2.1c-0.8-0.8-1.9-1.4-2.6-2.4
		c1.3,0.9,2.3,2,3.7,3c-0.1-0.5-0.3-0.9-0.5-1.2c-0.4-0.6-0.8-1.2-1.3-1.7c-2.1-2.4-3-5.2-2.8-8.3c0.2-2.5-0.1-5-0.5-7.5
		c-0.2,0.2-0.2,0.5-0.2,0.7c0.3,1.2-0.1,2.4-0.1,3.6c0,1-0.2,2-0.5,2.9c-0.5,1.3-0.8,2.6-1.4,3.8c-0.5,1-0.2,1.6,0.7,2.1
		C46,44.4,46.4,44.7,46.8,45.1z M35.5,54.4c-0.8-0.2-1.6-0.2-2.4-0.1c-0.6,0.1-0.9-0.2-1.1-0.6c-0.6-0.9-1.2-1.9-1.8-2.8
		c-0.1-0.1-0.2-0.4-0.3-0.3c-0.2,0.1-0.1,0.3-0.1,0.5c0,0.4,0.1,0.9,0,1.3c-0.1,0.9,0,1.5,0.9,1.9c0.4,0.2,0.6,0.7,1.2,0.7
		c-0.2,0.3,0.1,0.4,0.2,0.6c0.6,0.9,1.2,1.8,1.6,2.8c-1-1.6-2.3-2.9-3.9-4.1c0.2,0.5-0.2,1,0.4,1.2c-0.7,0.4,0.2,1.4-0.6,1.9
		c0.1,0.1,0.3-0.1,0.4,0.1c-0.6,0.2-0.7,0.6-0.8,1.1c-0.1,0.7,0.4,1.4,0,2.1c-0.1,0.1,0.1,0.1,0.3,0.2c0.5,0.2,1.2,0,1.2,0.8
		c0,0.2,0.3,0.4,0.5,0.5c0.6,0,1,0.4,1.5,0.6c0.7,0.2,1.2-0.3,1.8-0.2c0,0,0.1-0.1,0.1-0.2c0-0.2,0.1-0.2,0.3-0.2c0.4,0,0.9,0,1-0.6
		c0.1-0.5,0.7-0.6,0.7-1c0-0.5,0.3-0.6,0.7-0.8c-0.3-0.1-0.5-0.1-0.9-0.2c0.7-0.3,0.5-0.8,0.5-1.3s0.2-1.1-0.6-1.2
		c-0.1,0-0.2-0.2-0.2-0.2c0.4-0.3,0-0.6,0-1c0-0.7-0.8-1.3-1.4-1c-0.5,0.2-0.9,0.1-1.4,0.2c-0.1,0-0.2,0.1-0.2,0
		c-0.3-0.2-0.7-0.3-1.1-0.2c0.4-0.4,0.9-0.4,1.4-0.4c0.7,0,1.4,0.1,2.1,0.1C35.7,54.6,35.5,54.4,35.5,54.4c0.7,0,1.2,0.4,1.9,0.8
		c-0.1-1.5,0.1-2.9-0.1-4.5c-0.7,1.2-1.2,2.3-1.8,3.4C35.5,54.1,35.5,54.2,35.5,54.4z M22.3,44.1c0.2-0.2,0.4-0.4,0.6-0.6
		c0.2-0.2,0.2-0.3,0-0.6c-0.8-1-1.3-2.2-2.2-3.3c-0.3,0.6-0.3,1.4-0.5,2.1c-0.1-2.4-0.1-4.3,1.2-5.9c-0.8,0.5-1.2,1.1-1.3,1.8
		c0-0.7,0.3-1.3,0.8-1.7c0.5-0.5,1.1-0.7,1.6-1.1c-0.8,0.1-1.3,0.7-2,1.1c0.1-1,1-1.6,1-2.4c0-0.8-0.2-1.7-0.1-2.6
		c0-0.1,0-0.1,0-0.2s0.1-0.3-0.1-0.4c-0.7,0.5-1.1,1.3-1.5,2.1c-1.6,4.2-1,8.3,0.4,12.4c0.1,0.2,0.2,0.3,0.4,0.3
		c-0.1,0.2-0.2,0.3-0.1,0.5c0.4,1,0.9,2,1.6,2.8c0.9,1.1,2,2,3.3,2.7c0.3-2.7-0.8-4.9-2.1-7.1C23,44,22.6,43.8,22.3,44.1z M29.2,18
		c0.5-2.4,1.3-4.6,2.3-6.8c-0.2,0.1-0.4,0.4-0.5,0.6c-0.5,0.8-0.9,1.6-1.2,2.5c-0.1,0.5-0.4,0.6-0.8,0.4c-0.3-0.2-0.9,0.1-1-0.3
		c-0.1-0.3,0.3-0.7,0.6-1.1c0.2-0.3,0.2-0.3-0.1-0.6c-0.7,0.8-0.9,1.9-1.3,2.8c-0.8,2.2-0.9,4.5-1,6.8c0,0.5,0.3,0.6,0.7,0.7
		c0.4,0.1,1.5,0.1,1.6,0.2c0.8,0.7,1.8,0,2.5,0.5l0.1-0.1c0.2-0.4,0.7-0.4,0.9-0.3c0.7,0.2,0.5-0.4,0.6-0.6c0.1-0.4,0.2-0.9,0.2-1.3
		c0.1-1.3,0.5-2.7,0.2-4c-0.3-1.5-0.5-3-0.3-4.5c0-0.3-0.1-0.4-0.3-0.5c-0.3,1.2-0.4,2.4-0.4,3.7c-1.3-0.4-0.5-1.3-0.5-2.1
		c-0.3,0.4-0.3,0.8-0.4,1.2c0,0.1,0,0.4-0.3,0.3c-0.3-0.1-0.4,0.1-0.5,0.3C29.7,16.3,29.5,17.2,29.2,18z M25.6,47.7
		c-0.1,0.6,0,1.2,0,1.7c0.1,2.7-0.1,2.3,2.3,3.5c0,0,0,0,0.1,0c0.4,0.3,0.5,0,0.5-0.4c0-0.5-0.1-1-0.1-1.5c0.1-0.9-0.5-1.5-1.1-1.9
		C26.6,48.8,26.1,48.3,25.6,47.7z M30.9,8c0.1-0.2-0.2-0.3-0.1-0.4s0.3,0,0.4,0s0.3,0.2,0.5,0.1c-0.7-0.4-1.3-0.9-2-1
		c-0.2,0-0.5-0.2-0.7,0.1c-0.2,0.3-0.5,0.4-0.9,0.4s-0.3,0.6-0.6,0.6c0.1,0.1,0.2,0,0.2,0.1c-0.6,0.1-1.2,0-1.7,0.3
		c0.2,0.3,0.5,0,0.6,0.4c-0.7,0.2-1.5,0.2-2.1,0.7c1-0.1,2-0.2,3.1-0.3c-0.3-0.5-0.3-0.6,0.3-0.6c0.4,0,0.9,0.3,1.3,0
		c0-0.2-0.3-0.1-0.3-0.4c0.4-0.1,0.8,0.3,1.2,0.2C30,7.9,29.5,8,29.4,7.7C29.9,7.6,30.4,7.9,30.9,8z M25.9,11.9
		c-1.2,0.9-1.8,2.2-2,3.7c-0.2,1.2-0.1,2.3-0.6,3.4C23,19.7,23,20.5,23,21.3c0.5-0.3,1.2,0,1.2,0.5c0.1,0.4,0.1,0.4,0.4,0.6
		C24.1,18.8,23.3,15.1,25.9,11.9z M25,17c0.1-0.8,0.1-1.7,0.5-2.4c0.1-0.2,0.4-0.4,0.1-0.5s-0.5,0-0.6,0.3c-0.2,0.6-0.4,1.2-0.4,1.8
		c-0.1,1,0,1.9,0.1,2.9c0.1,1.1,0.1,2.1,0.3,3.2c0,0.1,0.1,0.3,0.4,0.3c0-2.5-0.5-5,0.4-7.4C25.4,15.7,25.4,16.4,25,17z M43.5,17.9
		c-0.3-1.8-1.1-3.4-2.5-4.7c-1.5-1.3-4-2.1-4.8-1.6c1.5,0.2,2.6,1,3.6,2.3c0-0.5-0.4-0.6-0.4-1c0.2-0.1,0.4,0,0.6,0.1
		C41.9,14.1,42.8,15.9,43.5,17.9z M36.3,52.3c-1,0.2-1.9,0.2-2.8,0.2c-0.2,0-0.5-0.1-0.4,0.3c0,0.6,0.6,1.1,1.2,1.2
		c0.2,0,0.4,0,0.6,0.1c0.2,0,0.4,0,0.5-0.2C35.7,53.3,35.9,52.9,36.3,52.3z M37.9,50.2c-0.2,0.5,0,1.1-0.1,1.6c0,1.2,0,2.3,0,3.5
		c0,0.2,0.1,0.3,0.2,0.4c0.2,0.1,0.3-0.1,0.4-0.2c0.5-0.6,0.5-1.4,0-2c0,0,0-0.1,0-0.2c0.2-0.6-0.1-1.2,0-1.8
		c0.1-0.5-0.2-0.3-0.4-0.2C38,50.9,38.2,50.6,37.9,50.2z M37.2,10.1c0.6,0.4,1.5-0.1,1.7,0.8c1.1,0.4,2.1,1,3,1.8
		C40.7,11.3,39.5,9.8,37.2,10.1z M28.7,56.4c0.8-0.3,0.7-1,0.7-2.1c0-0.4-0.3-0.4-0.7-0.6C28.7,54.6,28.7,55.5,28.7,56.4z
		 M43.9,16.6c-0.8-2-2-3.6-3.8-4.9c0.2,0.8,0.7,1.1,1.2,1.5c0.4,0.3,0.7,0.6,1,0.9C43,14.9,43.4,15.8,43.9,16.6z M28.9,50.7
		c0.1,0.9-0.8,1.9,0.4,2.6C29,52.5,29.6,51.5,28.9,50.7z M27.2,43c-0.2,0.3-0.4,0.5-0.4,0.5c-0.5-0.3-0.5,0.2-0.6,0.4
		c-0.2,0.4-0.3,0.8-0.3,1.4c0.2-0.4,0.1-0.8,0.4-1c0.1,0.5,0.2,1,0.3,1.5C26.6,44.8,26.8,43.9,27.2,43z M28.8,47.9
		c-0.3-1.2,0.1-2.5-0.2-3.7C28.3,45.5,28.2,46.7,28.8,47.9z M32.1,49.1c-0.7-1-0.2-2.3-0.7-3.3C31,47,31.4,48.1,32.1,49.1z
		 M25.4,44.4c0.3-1,0.7-1.9,1.6-2.6c-0.2,0.1-0.3,0.1-0.4,0.1c-0.5-0.4-0.6,0-0.7,0.3C25.6,42.9,25.5,43.7,25.4,44.4z M23,36.5
		c-1.1,0.6-2,1.4-2.5,2.5C21.2,38,22.3,37.4,23,36.5z M35.5,5.9c1.1-0.9,2.1-1.3,3.4-1C37.7,4.3,36.4,4.6,35.5,5.9z M32.6,7.1
		c-0.9-0.8-1.9-1.2-3-1.3C30.5,6.4,31.7,6.4,32.6,7.1z M28.5,62.9c-0.6-1.2-0.6-2.4-0.6-3.7C27.5,60.5,27.7,61.7,28.5,62.9z
		 M39.1,62.6c0.5-0.7,0.6-1.4,0.5-2.1C39.3,61.2,38.9,61.8,39.1,62.6z M36.5,6.1c0.6-0.4,1.4-0.4,2.1-0.9C37.7,5.3,37,5.5,36.5,6.1z
		 M43.5,42.1c-0.4-0.6-0.8-1-1.6-1C42.2,42,43.1,41.6,43.5,42.1z M30.2,47.3c0-0.8,0-1.6,0.3-2.3C30,45.7,29.8,46.4,30.2,47.3z
		 M33,49.3c-0.1-1.7-0.2-2-0.6-2.2C32.4,47.8,32.6,48.5,33,49.3z M27.9,58.8c0.3-0.9,0.9-1.6,1.3-2.4C28.5,57,28,57.8,27.9,58.8z
		 M29.5,6c0,0.1,0,0.1-0.1,0.2c0.8,0.4,1.7,0.7,2.5,1.1C31.2,6.7,30.3,6.3,29.5,6z M22.4,14.5c0.5-0.6,1.1-1.1,1.8-1.6
		C23.5,12.8,22.7,13.5,22.4,14.5z M24.2,10.1c0.6-0.2,1.3-0.5,1.9-0.7c0-0.1,0-0.1-0.1-0.2C25.4,9.6,24.7,9.6,24.2,10.1z M27.5,45.3
		c-0.5,0.7-0.4,1.3-0.1,1.9C27.5,46.6,27.5,46,27.5,45.3z M44.3,39.6c-0.3-0.5-0.5-0.7-0.8-0.9c-0.1-0.1-0.2-0.1-0.3,0.1
		c-0.1,0.1,0,0.2,0.1,0.2C43.5,39.1,43.8,39.3,44.3,39.6z M33,6.3c-0.6-0.6-1.4-0.9-1.9-0.8C31.8,5.7,32.3,6,33,6.3z M44.8,20.4
		c-0.1-0.7-0.3-1.3-0.6-2C44.3,19.1,44.5,19.8,44.8,20.4z M45.3,16.3c-0.3-0.7-0.9-1-1.3-1.5l-0.1,0.1
		C44.3,15.4,44.8,15.9,45.3,16.3z M43.5,41.4c-0.1-0.5-0.3-0.8-0.8-1.2C42.7,40.9,43.3,41,43.5,41.4z M22.8,37.9
		c-0.5,0.4-0.5,0.9-0.5,1.4C22.5,38.8,22.6,38.4,22.8,37.9z M38.8,55.5c-0.6,0.5-0.6,0.6,0,1C38.8,56.2,38.8,55.8,38.8,55.5z
		 M27.2,44.4c-0.2,0.6-0.3,1-0.2,1.5C27.1,45.5,27.3,45,27.2,44.4z M29.3,46.1c-0.3,0.7-0.2,1.1,0.1,1.7
		C29.2,47.2,29.3,46.7,29.3,46.1z M29.4,26.1c-0.2,0.3-0.3,0.6-0.4,0.9C29.5,26.9,29.8,26.7,29.4,26.1z M23.7,35.7
		c-0.5,0-0.9,0.2-1.2,0.6C22.8,36.1,23.2,35.9,23.7,35.7z"/>
	<path d="M45.3,66.8c-0.3-2.1-0.4-4.1,0.1-6.2c0.1,1.2,0.1,2.4,0.2,3.6c0,0,0.1,0,0.1,0.1c0.2-0.3,0.4-0.6,0.5-0.9
		c0.2-0.8,0.5-1.5,1-2.1c0.2-0.3,0-0.3-0.2-0.4c-1.1-0.7-1.4-2.1-0.6-3.2c0.2-0.2,0.2-0.5,0.3-0.7c-0.4,0-0.7,0.1-1,0.1
		s-0.4,0.1-0.4,0.4c0,0.6-0.1,1.3-0.1,1.9c-0.1-2-0.4-3.9-0.7-5.8c0.5,0.4,0.4,1.1,0.9,1.6c0.1-0.6-0.5-1.2,0.1-1.7
		c0.4,0.6,0.2,1.3,0.5,1.9c0.2-0.6,0.2-1.2,0.4-1.8c0.2,0.3-0.1,0.6,0.1,0.8c0.2,0.2,0.6,0.2,0.4,0.7c0.5-0.6,0.6-1.4,1.2-2
		c0,1.1,0,2-0.8,2.9c0.8-0.3,1.7-0.5,2.5-0.5c-0.6,0.2-1.1,0.5-1.6,1c0.6,0.1,1.2-0.3,1.8,0.2c-0.7,0.1-1.3,0.2-1.8,0.6
		c0.9,0.1,1.8,0.2,2.7,0.4C50.6,58,50.4,58.1,50,58c-0.5-0.1-1.1-0.1-1.6-0.2c-0.1,0-0.3,0-0.4,0c-0.3,0-0.7,0.2-0.7,0.5
		c0,0.2,0.4,0.3,0.7,0.4c1,0.2,1.9,0.5,2.7,1.1c-0.6-0.2-1.2-0.4-1.8-0.5c-0.5-0.2-1-0.3-1.6-0.3c-0.2,0-0.5-0.1-0.6,0.2
		c0,0.3,0.3,0.3,0.5,0.3c1.3,0.3,2.5,0.6,3.8,0.9c0.4,0.1,0.8,0.2,1.1,0.5c-0.7-0.1-1.3-0.3-2-0.4c-0.9-0.2-1.8-0.5-2.7-0.7
		c-0.2-0.1-0.5-0.2-0.6,0.1s0.2,0.3,0.4,0.4c2.5,1,4.9,2.2,7,3.9c0.4,0.3,0.5,0.1,0.6-0.2c0.7-1.3,1.1-2.5,1.1-3.8
		c0.4,1.5-0.3,2.8-1,4.1c-0.2,0.4-0.7,0.6-1.2,0.5c-1.1-0.2-2-0.7-2.8-1.3c-0.2-0.1-0.4-0.3-0.6,0c-1,1.3-2.1,2.5-3.3,3.6
		C46.6,66.8,45.9,66.8,45.3,66.8z M46.5,66.4c0.2-0.1,0.5-0.3,0.7-0.5c0.6-0.9,1.6-1.5,2.1-2.5c0.2-0.4,0.5-0.7,0-1.1
		c-0.7-0.5-1.2-0.5-1.6,0C46.6,63.4,46.3,64.8,46.5,66.4z"/>
	<path d="M21.5,66.8c-0.1-0.7-0.1-1.4-0.2-2.1c-0.1-0.5-0.1-0.5-0.6-0.4c-0.2,0-0.2-0.1-0.2-0.2c-0.1-1-0.5-2-0.6-3
		c-0.1-0.4-0.2-0.5-0.6-0.3c-0.9,0.4-1.7,0.8-2.5,1.2c-0.4,0.2-0.2,0.4-0.1,0.6c1,1.3,2,2.6,3.1,3.7c0.2,0.2,0.3,0.4,0.5,0.6
		c-0.1,0-0.2,0-0.3,0c-1-1-2-2.1-2.9-3.3c-0.3-0.4-0.5-0.5-1-0.2c-0.7,0.5-1.6,0.7-2.4,1.1c-0.5,0.2-0.9-0.1-1.3-0.4
		c0.4,0.1,0.6-0.1,0.9-0.3c2-1.4,4.1-2.7,6.4-3.7c0.2-0.1,0.5-0.1,0.8-0.2c0.2,0,0.4,0.1,0.4-0.2s-0.3-0.2-0.4-0.2s-0.2,0-0.2,0
		c0.2-0.3,0.8,0,0.7-0.4c-0.1-0.4-0.6-0.4-1.1-0.4c0.2-0.2,0.7-0.2,0.3-0.7c-0.2-0.2,0.3-0.1,0.4-0.2l0,0c0,0.2,0.1,0.3,0.2,0.4
		c0.6,0.6,0.6,1.7-0.1,2.3c-0.4,0.4-0.4,0.7-0.3,1.2c0,0.1,0.1,0.2,0.1,0.4c0.1,0.8,0.9,1.4,0.8,2.4c-0.1,0.8,0.2,1.7,0.2,2.5
		C21.7,66.8,21.6,66.8,21.5,66.8z"/>
	<path d="M20.8,57.7c-0.8-0.2-1.6-0.2-2.4-0.2c-0.4,0-0.8,0-1.2-0.1c0.9-0.3,1.7-0.2,2.6-0.4c-1-0.5-2-0.4-3.1-0.8
		c1.3-0.1,2.3,0.2,3.4,0.4c-0.3-0.5-0.8-0.7-1.1-1c0.2,0.1,0.4,0.1,0.6,0.2c0.2,0.1,0.3,0.2,0.5,0c0.1-0.2-0.1-0.3-0.1-0.5
		c-0.2-0.5-0.7-1-0.2-1.6c0.4,0.6,0.5,1.2,0.9,1.9c0.1-0.5,0.4-0.9,0.5-1.3c0.1,0.4,0.1,0.8,0.2,1.3c0.3-0.6,0.3-1.1,0.4-1.6
		c0.2,0.4,0.2,0.4,0.2,1.4c0.4-0.3,0.5-0.8,0.8-1.1c-0.2,2.4-0.5,4.7-0.5,7.1c0-1.2,0-2.4,0-3.6c0-0.7-0.2-1-0.9-0.9
		c-0.2,0-0.3,0-0.5,0c0,0.4,0.1,0.8,0.5,1.1C21,57.9,20.9,57.8,20.8,57.7L20.8,57.7z"/>
	<path d="M18,28.8c0.3,0.9,0.7,1.7,1.3,2.4c0.2,0.2,0.1,0.4,0,0.6c-0.4,0.8-0.7,1.7-0.9,2.7C18.3,32.6,17.9,30.7,18,28.8z"/>
	<path d="M51.9,58c0.9,0.1,1.9,0.2,2.8,0.5c0.4,0.2,0.7,0.2,0.8-0.3c0-0.2,0.2-0.4,0.4-0.7c0.1,0.6-0.4,0.9-0.4,1.4
		c0,0.1-0.2,0.1-0.3,0.1C54.1,58.4,52.9,58.3,51.9,58z"/>
	<path d="M46.8,46c0.9,0.5,0.8,1-0.3,1.7c0.1-0.4,0.3-0.6,0.5-0.8C47.4,46.5,46.7,46.4,46.8,46z"/>
	<path d="M11.9,56.5c0-1.3,0.3-2.6,0.2-3.3C12,53.9,12.3,55.2,11.9,56.5z"/>
	<path d="M45,47.1c-0.2,0.7-0.3,1.3-0.5,2C44.3,48.5,44.4,48.1,45,47.1z"/>
	<path d="M19.4,59.5c-0.7,0.4-1.5,0.5-2.2,0.6C17.9,59.9,18.7,59.7,19.4,59.5z"/>
	<path d="M16.5,48.9c0.5-0.6,1.1-1.2,1.9-1.6C17.8,47.9,17.2,48.5,16.5,48.9L16.5,48.9z"/>
	<path d="M52.9,50.4c0.5,0.3,0.9,0.5,1.5,0.9C53.6,51.1,53.2,50.8,52.9,50.4z"/>
	<path d="M16.5,49c-0.4,0.5-0.9,0.9-1.5,1.2C15.5,49.7,15.9,49.2,16.5,49C16.5,48.9,16.5,49,16.5,49z"/>
	<path d="M22,63.3c0.1-0.4,0.1-0.8,0.2-1.2C22.4,62.5,22.2,62.9,22,63.3z"/>
	<path d="M34.9,24.2c0.3-0.3,0.6-0.4,1-0.5c0.9-0.2,1.8-0.4,2.7-0.6c0.8-0.2,1.5-0.6,1.9-1.4c0.2-0.4,0.5-0.6,0.7-1
		c0.4-0.6,0.4-0.6,0.9,0.1c-0.2-0.6,0.3-0.4,0.5-0.5s0.3,0.2,0.3,0.4c0.5,1.3-0.4,3.2-1.8,3.4c-1.9,0.3-3.7,0.7-5.6,0.7
		C35.3,24.5,34.9,24.6,34.9,24.2L34.9,24.2z"/>
	<path d="M22.1,26.3c0.2,0.2,0.4,0.4,0.3,0.6C22.3,28,22.5,29,22.8,30c-1.3-1.2-3.7-6.5-3.5-8.2c0.4,1.6,1,2.9,2.3,3.8
		C21.7,25.9,21.9,26.1,22.1,26.3z"/>
	<path d="M32.9,40.8c-0.1-0.2-0.2-0.3-0.3-0.5c-0.3-0.7-0.2-0.9,0.6-0.8c0,0,0.1,0.1,0.1,0c0.4-0.1,0.9-0.3,1.1,0
		c0.3,0.5,0.2,1.1,0.2,1.7c0,0.5-0.2,0.7-0.7,0.4C33.6,41.4,33.3,41.1,32.9,40.8z"/>
	<path d="M40,50.4c-0.4,0.5-0.2,1.1-0.3,1.7C39.3,51.3,39.4,50.8,40,50.4z"/>
	<path d="M29.8,37.6c-0.3-0.4,0-0.7,0.3-0.9c0.2-0.2,0.5-0.2,0.7-0.4l0.1-0.1c0.5,0,0.5,0,0.7-0.5c0.1-0.1,0.1-0.3,0.2-0.3
		c0.1,0.3-0.3,0.7,0.1,0.9c0.2-0.5,0.4-1.1,0.9-1.5c0.3-0.2,0.1-0.4,0-0.7l0,0c0.3,0.2,0.6,0,0.9,0l0,0c0.1,0.1,0.3,0.3,0.5,0.3
		c0.1,0,0.3,0,0.4,0.1c0.8,0.7,1.8,0.6,2.7,0.9c1.7,0.5,2.6,1.4,2.7,3.3c-0.4-0.2-0.4-0.8-0.9-1c-0.8-0.3-1.2-0.4-1.9,0.1
		c-0.4,0.3-0.8,0.8-1.4,0.3c-0.1-0.1-0.3-0.1-0.5,0c-1.2,0.2-2.5,0.1-3.7-0.2c-0.3-0.1-0.7-0.2-1-0.1c-0.3,0.1-0.5,0-0.7-0.2
		C29.8,37.6,29.8,37.6,29.8,37.6z"/>
	<path d="M36.7,26.1c-0.3,0.5-0.3,0.5,0.8,1.1c-0.4-0.1-0.7-0.1-1-0.1c-0.1,0-0.3,0-0.3,0.1c-0.1,0.1,0.1,0.2,0.2,0.3
		c0.2,0.2,0.3,0.4,0.5,0.6c-0.8-0.6-1.6-1.4-2.2-2.2c0.3,0.3,0.7,0.6,1,0.9c0.3-0.1,0.3-0.3,0.3-0.5c0.4-0.7,0.9-1.1,1.7-1.2
		c0.7-0.1,1.5-0.1,2.2-0.1c1,0.1,1.6,0.5,2,1.4c-0.3-0.1-0.6,0-0.9,0.1c-0.3,0.2-0.6-0.1-0.9,0.3c0-0.3,0.2-0.4,0.3-0.5
		c0.1-0.2,0.4-0.4,0.2-0.7c-0.2-0.3-0.6-0.3-1-0.3c-0.3,0-0.4,0.2-0.4,0.5c-0.1,0.6-0.3,1-1,1.1C37.4,27.1,37,26.8,36.7,26.1
		C36.8,26.2,36.7,26.1,36.7,26.1z"/>
	<path d="M29.8,37.6l0.1,0.1c0.3,0.3,0.5,0.5,0.8,0.8l0,0c-0.8-0.7-1.6-0.2-2.4-0.1l0,0c0-0.1,0-0.1-0.1-0.2
		c-0.2-0.4-0.5-0.7,0.2-0.9c0.5-0.1,0.7-0.4,0.2-0.9s-1.1-0.9-1.3-1.6C28.1,35.7,29.1,36.4,29.8,37.6z"/>
	<path d="M32.8,34.2c-0.5,0.2-1-0.4-1.5-0.1c-0.1,0.1-0.3-0.2-0.3-0.4c0-0.3,0.2-0.4,0.5-0.3c0.3,0,0.5,0.2,0.7,0.4
		C32.3,34,32.5,34.2,32.8,34.2L32.8,34.2z"/>
	<path d="M33.7,34.3c0.4-0.2,0.6-0.6,1-0.9c0.2-0.1,0.5-0.3,0.6,0c0.2,0.3-0.2,0.3-0.4,0.4C34.5,33.9,34.1,34.2,33.7,34.3L33.7,34.3
		z"/>
	<path d="M30.7,38.5C30.6,38.5,30.6,38.5,30.7,38.5c-0.2-0.3,0-0.3,0.2-0.3c0.3,0.1,0.6,0.4,1,0.5C31.4,38.9,31,38.7,30.7,38.5z"/>
	<path d="M28.2,38.4c0,0.2-0.1,0.5-0.3,0.7c-0.1-0.4-0.1-0.8-0.1-1.1C28,38.1,28,38.4,28.2,38.4L28.2,38.4z"/>
	<path d="M23.4,32c-0.2-0.4-0.4-0.7-0.6-1.1C23.3,31.1,23.3,31.1,23.4,32z"/>
</g>
</svg>
